<svg width="17" height="18" viewBox="0 0 17 18" fill="none" xmlns="http://www.w3.org/2000/svg">
<path d="M8.59881 6.25998L8.59887 6.26004C8.80646 6.45622 8.80647 6.77667 8.59924 6.97287L8.59911 6.973L5.19698 10.1824C5.09399 10.2796 4.95999 10.3271 4.82755 10.3271C4.6951 10.3271 4.5611 10.2796 4.45812 10.1824L1.056 6.97301C0.847995 6.77682 0.848006 6.45646 1.05599 6.26026M8.59881 6.25998L5.12836 10.1097C5.0453 10.188 4.93642 10.2271 4.82755 10.2271C4.71867 10.2271 4.6098 10.188 4.52674 10.1097L1.12461 6.90026C0.958462 6.74355 0.958462 6.48974 1.12461 6.333C1.29073 6.17626 1.55978 6.17626 1.72593 6.333L4.30198 8.76314V8.62566M8.59881 6.25998C8.39413 6.06689 8.06489 6.06688 7.86024 6.25998M8.59881 6.25998L7.86024 6.25998M1.05599 6.26026L1.12459 6.33297L1.05599 6.26026C1.05599 6.26026 1.05599 6.26026 1.05599 6.26026ZM1.05599 6.26026C1.26065 6.06716 1.58988 6.06718 1.79455 6.26026L4.30198 8.62566M4.30198 8.62566V1.40118C4.30198 1.11882 4.54257 0.9 4.82725 0.9C5.11193 0.9 5.35252 1.11882 5.35252 1.40118V8.62566M4.30198 8.62566L4.40198 8.72V1.40118C4.40198 1.17946 4.59222 1 4.82725 1C5.06228 1 5.25252 1.17946 5.25252 1.40118V8.72L5.35252 8.62566M5.35252 8.62566L7.86024 6.25998M5.35252 8.62566V8.76314L7.92887 6.33272M7.86024 6.25998L8.53019 6.33272C8.36403 6.17597 8.09499 6.17597 7.92887 6.33272M7.86024 6.25998L7.86025 6.25998L7.92887 6.33272M7.86024 6.25998L7.92887 6.33272" fill="#4B4B4B" stroke="#4B4B4B" stroke-width="0.2"/>
<path d="M15.9443 11.0742L15.9444 11.0742C16.152 11.2704 16.152 11.5907 15.944 11.7869M15.9443 11.0742L15.8754 11.7142M15.9443 11.0742L12.5422 7.86473C12.4392 7.76758 12.3052 7.72007 12.1728 7.72007C12.0403 7.72007 11.9063 7.76758 11.8033 7.86473L8.40122 11.0741L15.9443 11.0742ZM15.944 11.7869L15.8754 11.7142M15.944 11.7869C15.944 11.7869 15.944 11.7869 15.944 11.7869L15.8754 11.7142M15.944 11.7869C15.7394 11.98 15.4101 11.98 15.2055 11.7869L12.698 9.42149M15.8754 11.7142C15.7093 11.8709 15.4402 11.8709 15.2741 11.7142L12.698 9.28402V9.42149M12.698 9.42149V16.646C12.698 16.9283 12.4574 17.1472 12.1728 17.1472C11.8881 17.1472 11.6475 16.9283 11.6475 16.646V9.42147M12.698 9.42149L12.598 9.32716V16.646C12.598 16.8677 12.4078 17.0472 12.1728 17.0472C11.9377 17.0472 11.7475 16.8677 11.7475 16.646V9.32715M11.6475 9.42147V9.28401L11.7475 9.18968V9.32715M11.6475 9.42147L11.7475 9.32715M11.6475 9.42147L11.7475 9.32715M9.13977 11.7869L9.07115 11.7142L9.13977 11.7869C9.13977 11.7869 9.13977 11.7869 9.13977 11.7869Z" fill="#4B4B4B" stroke="#4B4B4B" stroke-width="0.2"/>
</svg>
