<svg width="15" height="14" viewBox="0 0 15 14" fill="none" xmlns="http://www.w3.org/2000/svg">
<path d="M12.3933 4.53394L13.6152 5.50441H13.541H12.791V6.25441V13.1124C12.791 13.1713 12.7358 13.25 12.6326 13.25H9.83919C9.78952 13.25 9.73945 13.2296 9.70183 13.1938C9.66427 13.158 9.65806 13.1263 9.65806 13.1124V10.3001C9.65806 9.6787 9.17394 9.08956 8.47656 9.08956H6.56887C5.93004 9.08956 5.34194 9.62029 5.34194 10.3001V13.1124C5.34194 13.1612 5.32452 13.193 5.30445 13.2131C5.28443 13.2331 5.25344 13.25 5.20623 13.25H2.3674C2.26417 13.25 2.20898 13.1713 2.20898 13.1124V6.25441V5.50441H1.45898H1.38454L7.29473 0.809474C7.29476 0.80945 7.29479 0.809426 7.29482 0.809402C7.33006 0.781454 7.39939 0.75 7.49841 0.75C7.59804 0.75 7.66866 0.781723 7.70521 0.810698C7.70524 0.810724 7.70528 0.81075 7.70531 0.810777L10.2131 2.80238L11.4295 3.76845V2.21506V1.82593H12.1097V3.94662V4.30873L12.3933 4.53394Z" stroke="white" stroke-width="1.5"/>
</svg>
