<svg width="17" height="17" viewBox="0 0 17 17" fill="none" xmlns="http://www.w3.org/2000/svg">
<path d="M12.6667 12.0059H14.3333V2.57227H6V4.14453H12.6667V12.0059ZM12.6667 13.5781V15.9365C12.6667 16.3705 12.2917 16.7227 11.8275 16.7227H1.83917C1.72927 16.7233 1.62033 16.7034 1.5186 16.6642C1.41687 16.625 1.32436 16.5672 1.24638 16.4941C1.1684 16.4211 1.10649 16.3342 1.06421 16.2385C1.02193 16.1428 1.00011 16.0402 1 15.9365L1.0025 4.93066C1.0025 4.49672 1.3775 4.14453 1.84167 4.14453H4.33333V1.78613C4.33333 1.57764 4.42113 1.37768 4.57741 1.23025C4.73369 1.08282 4.94565 1 5.16667 1H15.1667C15.3877 1 15.5996 1.08282 15.7559 1.23025C15.9122 1.37768 16 1.57764 16 1.78613V12.792C16 13.0005 15.9122 13.2004 15.7559 13.3479C15.5996 13.4953 15.3877 13.5781 15.1667 13.5781H12.6667ZM2.66917 5.7168L2.66667 15.1504H11V5.7168H2.66917ZM4.33333 12.0059H8.08333C8.19384 12.0059 8.29982 11.9644 8.37796 11.8907C8.4561 11.817 8.5 11.717 8.5 11.6128C8.5 11.5085 8.4561 11.4086 8.37796 11.3349C8.29982 11.2611 8.19384 11.2197 8.08333 11.2197H5.58333C5.0308 11.2197 4.5009 11.0127 4.11019 10.6441C3.71949 10.2755 3.5 9.77563 3.5 9.25439C3.5 8.73316 3.71949 8.23327 4.11019 7.86469C4.5009 7.49612 5.0308 7.28906 5.58333 7.28906H6V6.50293H7.66667V7.28906H9.33333V8.86133H5.58333C5.47283 8.86133 5.36685 8.90274 5.2887 8.97645C5.21057 9.05017 5.16667 9.15015 5.16667 9.25439C5.16667 9.35864 5.21057 9.45862 5.2887 9.53233C5.36685 9.60605 5.47283 9.64746 5.58333 9.64746H8.08333C8.63587 9.64746 9.16577 9.85452 9.55647 10.2231C9.94717 10.5917 10.1667 11.0916 10.1667 11.6128C10.1667 12.134 9.94717 12.6339 9.55647 13.0025C9.16577 13.3711 8.63587 13.5781 8.08333 13.5781H7.66667V14.3643H6V13.5781H4.33333V12.0059Z" fill="#4B4B4B" stroke="white" stroke-width="0.5"/>
</svg>
