<svg width="14" height="11" viewBox="0 0 14 11" fill="none" xmlns="http://www.w3.org/2000/svg">
<path d="M12.5945 0.716966C12.3072 0.807278 12.2962 0.815488 8.63994 4.47177L5.04113 8.06785L3.41277 6.43949C1.89935 4.93154 1.77072 4.80839 1.60105 4.72902C1.1659 4.52651 0.703395 4.58945 0.358566 4.90144C0.0848918 5.14775 -0.0492083 5.54184 0.0164734 5.89761C0.0848919 6.26433 0.041104 6.21781 2.3126 8.48109C4.29947 10.4625 4.42262 10.5802 4.58956 10.6541C4.80303 10.7471 5.09586 10.7745 5.29291 10.7225C5.62679 10.6322 5.48448 10.7663 9.75105 6.49969C14.1681 2.07712 13.9164 2.34806 13.9848 1.95671C14.0778 1.4121 13.7357 0.883906 13.1857 0.716966C13.0324 0.670441 12.7423 0.670441 12.5945 0.716966Z" fill="#FFC143"/>
</svg>
